<svg height="800" viewBox="0 0 1920 800" width="1920" xmlns="http://www.w3.org/2000/svg">
<g class="g-chart">
<g class="g-title" transform="translate(960,25)">
<text dy=".35em" fill="#777" font-family="sans-serif" font-size="24px" text-anchor="middle" x="0" y="0">
TOP Lessons Completed
</text>
</g>
<g class="x-axis" transform="translate(80,750)">
<line shape-rendering="crispEdges" stroke="#bbbbbb" stroke-width="1" x1="0" x2="1840" y1="0" y2="0"/>
<g class="tick" transform="translate(55.911625,0)">
<line shape-rendering="crispEdges" stroke="#bbbbbb" stroke-width="1px" x1="0" x2="0" y1="0" y2="6"/>
<text dy=".35em" fill="#777" font-family="sans-serif" font-size="12px" text-anchor="middle" transform="rotate(0,0,16)" x="0" y="16">
January 2023
</text>
</g>
<g class="tick" transform="translate(157.56908,0)">
<line shape-rendering="crispEdges" stroke="#bbbbbb" stroke-width="1px" x1="0" x2="0" y1="0" y2="6"/>
<text dy=".35em" fill="#777" font-family="sans-serif" font-size="12px" text-anchor="middle" transform="rotate(0,0,16)" x="0" y="16">
February 2023
</text>
</g>
<g class="tick" transform="translate(259.22653,0)">
<line shape-rendering="crispEdges" stroke="#bbbbbb" stroke-width="1px" x1="0" x2="0" y1="0" y2="6"/>
<text dy=".35em" fill="#777" font-family="sans-serif" font-size="12px" text-anchor="middle" transform="rotate(0,0,16)" x="0" y="16">
March 2023
</text>
</g>
<g class="tick" transform="translate(360.88397,0)">
<line shape-rendering="crispEdges" stroke="#bbbbbb" stroke-width="1px" x1="0" x2="0" y1="0" y2="6"/>
<text dy=".35em" fill="#777" font-family="sans-serif" font-size="12px" text-anchor="middle" transform="rotate(0,0,16)" x="0" y="16">
April 2023
</text>
</g>
<g class="tick" transform="translate(462.54144,0)">
<line shape-rendering="crispEdges" stroke="#bbbbbb" stroke-width="1px" x1="0" x2="0" y1="0" y2="6"/>
<text dy=".35em" fill="#777" font-family="sans-serif" font-size="12px" text-anchor="middle" transform="rotate(0,0,16)" x="0" y="16">
May 2023
</text>
</g>
<g class="tick" transform="translate(564.1989,0)">
<line shape-rendering="crispEdges" stroke="#bbbbbb" stroke-width="1px" x1="0" x2="0" y1="0" y2="6"/>
<text dy=".35em" fill="#777" font-family="sans-serif" font-size="12px" text-anchor="middle" transform="rotate(0,0,16)" x="0" y="16">
June 2023
</text>
</g>
<g class="tick" transform="translate(665.8563,0)">
<line shape-rendering="crispEdges" stroke="#bbbbbb" stroke-width="1px" x1="0" x2="0" y1="0" y2="6"/>
<text dy=".35em" fill="#777" font-family="sans-serif" font-size="12px" text-anchor="middle" transform="rotate(0,0,16)" x="0" y="16">
July 2023
</text>
</g>
<g class="tick" transform="translate(767.5138,0)">
<line shape-rendering="crispEdges" stroke="#bbbbbb" stroke-width="1px" x1="0" x2="0" y1="0" y2="6"/>
<text dy=".35em" fill="#777" font-family="sans-serif" font-size="12px" text-anchor="middle" transform="rotate(0,0,16)" x="0" y="16">
August 2023
</text>
</g>
<g class="tick" transform="translate(869.17126,0)">
<line shape-rendering="crispEdges" stroke="#bbbbbb" stroke-width="1px" x1="0" x2="0" y1="0" y2="6"/>
<text dy=".35em" fill="#777" font-family="sans-serif" font-size="12px" text-anchor="middle" transform="rotate(0,0,16)" x="0" y="16">
September 2023
</text>
</g>
<g class="tick" transform="translate(970.82874,0)">
<line shape-rendering="crispEdges" stroke="#bbbbbb" stroke-width="1px" x1="0" x2="0" y1="0" y2="6"/>
<text dy=".35em" fill="#777" font-family="sans-serif" font-size="12px" text-anchor="middle" transform="rotate(0,0,16)" x="0" y="16">
October 2023
</text>
</g>
<g class="tick" transform="translate(1072.4862,0)">
<line shape-rendering="crispEdges" stroke="#bbbbbb" stroke-width="1px" x1="0" x2="0" y1="0" y2="6"/>
<text dy=".35em" fill="#777" font-family="sans-serif" font-size="12px" text-anchor="middle" transform="rotate(0,0,16)" x="0" y="16">
November 2023
</text>
</g>
<g class="tick" transform="translate(1174.1437,0)">
<line shape-rendering="crispEdges" stroke="#bbbbbb" stroke-width="1px" x1="0" x2="0" y1="0" y2="6"/>
<text dy=".35em" fill="#777" font-family="sans-serif" font-size="12px" text-anchor="middle" transform="rotate(0,0,16)" x="0" y="16">
December 2023
</text>
</g>
<g class="tick" transform="translate(1275.801,0)">
<line shape-rendering="crispEdges" stroke="#bbbbbb" stroke-width="1px" x1="0" x2="0" y1="0" y2="6"/>
<text dy=".35em" fill="#777" font-family="sans-serif" font-size="12px" text-anchor="middle" transform="rotate(0,0,16)" x="0" y="16">
January 2024
</text>
</g>
<g class="tick" transform="translate(1377.4585,0)">
<line shape-rendering="crispEdges" stroke="#bbbbbb" stroke-width="1px" x1="0" x2="0" y1="0" y2="6"/>
<text dy=".35em" fill="#777" font-family="sans-serif" font-size="12px" text-anchor="middle" transform="rotate(0,0,16)" x="0" y="16">
February 2024
</text>
</g>
<g class="tick" transform="translate(1479.116,0)">
<line shape-rendering="crispEdges" stroke="#bbbbbb" stroke-width="1px" x1="0" x2="0" y1="0" y2="6"/>
<text dy=".35em" fill="#777" font-family="sans-serif" font-size="12px" text-anchor="middle" transform="rotate(0,0,16)" x="0" y="16">
March 2024
</text>
</g>
<g class="tick" transform="translate(1580.7734,0)">
<line shape-rendering="crispEdges" stroke="#bbbbbb" stroke-width="1px" x1="0" x2="0" y1="0" y2="6"/>
<text dy=".35em" fill="#777" font-family="sans-serif" font-size="12px" text-anchor="middle" transform="rotate(0,0,16)" x="0" y="16">
April 2024
</text>
</g>
<g class="tick" transform="translate(1682.4309,0)">
<line shape-rendering="crispEdges" stroke="#bbbbbb" stroke-width="1px" x1="0" x2="0" y1="0" y2="6"/>
<text dy=".35em" fill="#777" font-family="sans-serif" font-size="12px" text-anchor="middle" transform="rotate(0,0,16)" x="0" y="16">
May 2024
</text>
</g>
<g class="tick" transform="translate(1784.0884,0)">
<line shape-rendering="crispEdges" stroke="#bbbbbb" stroke-width="1px" x1="0" x2="0" y1="0" y2="6"/>
<text dy=".35em" fill="#777" font-family="sans-serif" font-size="12px" text-anchor="middle" transform="rotate(0,0,16)" x="0" y="16">
June 2024
</text>
</g>
</g>
<g class="y-axis" transform="translate(80,50)">
<line shape-rendering="crispEdges" stroke="#bbbbbb" stroke-width="1" x1="0" x2="0" y1="0" y2="700"/>
<g class="tick" transform="translate(0,700)">
<line shape-rendering="crispEdges" stroke="#bbbbbb" stroke-width="1px" x1="0" x2="-6" y1="0" y2="0"/>
<text dy=".35em" fill="#777" font-family="sans-serif" font-size="12px" text-anchor="end" transform="rotate(0,-12,0)" x="-12" y="0">
200000
</text>
</g>
<g class="tick" transform="translate(0,630)">
<line shape-rendering="crispEdges" stroke="#bbbbbb" stroke-width="1px" x1="0" x2="-6" y1="0" y2="0"/>
<text dy=".35em" fill="#777" font-family="sans-serif" font-size="12px" text-anchor="end" transform="rotate(0,-12,0)" x="-12" y="0">
220000
</text>
</g>
<g class="tick" transform="translate(0,560)">
<line shape-rendering="crispEdges" stroke="#bbbbbb" stroke-width="1px" x1="0" x2="-6" y1="0" y2="0"/>
<text dy=".35em" fill="#777" font-family="sans-serif" font-size="12px" text-anchor="end" transform="rotate(0,-12,0)" x="-12" y="0">
240000
</text>
</g>
<g class="tick" transform="translate(0,490)">
<line shape-rendering="crispEdges" stroke="#bbbbbb" stroke-width="1px" x1="0" x2="-6" y1="0" y2="0"/>
<text dy=".35em" fill="#777" font-family="sans-serif" font-size="12px" text-anchor="end" transform="rotate(0,-12,0)" x="-12" y="0">
260000
</text>
</g>
<g class="tick" transform="translate(0,420)">
<line shape-rendering="crispEdges" stroke="#bbbbbb" stroke-width="1px" x1="0" x2="-6" y1="0" y2="0"/>
<text dy=".35em" fill="#777" font-family="sans-serif" font-size="12px" text-anchor="end" transform="rotate(0,-12,0)" x="-12" y="0">
280000
</text>
</g>
<g class="tick" transform="translate(0,350)">
<line shape-rendering="crispEdges" stroke="#bbbbbb" stroke-width="1px" x1="0" x2="-6" y1="0" y2="0"/>
<text dy=".35em" fill="#777" font-family="sans-serif" font-size="12px" text-anchor="end" transform="rotate(0,-12,0)" x="-12" y="0">
300000
</text>
</g>
<g class="tick" transform="translate(0,279.99997)">
<line shape-rendering="crispEdges" stroke="#bbbbbb" stroke-width="1px" x1="0" x2="-6" y1="0" y2="0"/>
<text dy=".35em" fill="#777" font-family="sans-serif" font-size="12px" text-anchor="end" transform="rotate(0,-12,0)" x="-12" y="0">
320000
</text>
</g>
<g class="tick" transform="translate(0,210)">
<line shape-rendering="crispEdges" stroke="#bbbbbb" stroke-width="1px" x1="0" x2="-6" y1="0" y2="0"/>
<text dy=".35em" fill="#777" font-family="sans-serif" font-size="12px" text-anchor="end" transform="rotate(0,-12,0)" x="-12" y="0">
340000
</text>
</g>
<g class="tick" transform="translate(0,140)">
<line shape-rendering="crispEdges" stroke="#bbbbbb" stroke-width="1px" x1="0" x2="-6" y1="0" y2="0"/>
<text dy=".35em" fill="#777" font-family="sans-serif" font-size="12px" text-anchor="end" transform="rotate(0,-12,0)" x="-12" y="0">
360000
</text>
</g>
<g class="tick" transform="translate(0,70)">
<line shape-rendering="crispEdges" stroke="#bbbbbb" stroke-width="1px" x1="0" x2="-6" y1="0" y2="0"/>
<text dy=".35em" fill="#777" font-family="sans-serif" font-size="12px" text-anchor="end" transform="rotate(0,-12,0)" x="-12" y="0">
380000
</text>
</g>
<g class="tick" transform="translate(0,0)">
<line shape-rendering="crispEdges" stroke="#bbbbbb" stroke-width="1px" x1="0" x2="-6" y1="0" y2="0"/>
<text dy=".35em" fill="#777" font-family="sans-serif" font-size="12px" text-anchor="end" transform="rotate(0,-12,0)" x="-12" y="0">
400000
</text>
</g>
</g>
<g class="g-view" transform="translate(80,50)">
<g>
<g class="line">
<path d="M55.911625,163.91553 L157.56908,325.6505 L259.22653,365.792 L360.88397,517.8145 L462.54144,298.67947 L564.1989,214.83698 L665.8563,33.291992 L767.5138,5.883545 L869.17126,244.055 L970.82874,262.717 L1072.4862,424.61652 L1174.1437,463.953 L1275.801,241.318 L1377.4585,371.7105 L1479.116,471.2295 L1580.7734,566.6115 L1682.4309,474.1275 L1784.0884,558.964" fill="none" stroke="#1f77b4" stroke-width="2"/>
<g class="scatter-point" transform="translate(55.911625,163.91553)">
<circle cx="0" cy="0" fill="#1f77b4" r="5"/>
</g>
<g class="scatter-point" transform="translate(157.56908,325.6505)">
<circle cx="0" cy="0" fill="#1f77b4" r="5"/>
</g>
<g class="scatter-point" transform="translate(259.22653,365.792)">
<circle cx="0" cy="0" fill="#1f77b4" r="5"/>
</g>
<g class="scatter-point" transform="translate(360.88397,517.8145)">
<circle cx="0" cy="0" fill="#1f77b4" r="5"/>
</g>
<g class="scatter-point" transform="translate(462.54144,298.67947)">
<circle cx="0" cy="0" fill="#1f77b4" r="5"/>
</g>
<g class="scatter-point" transform="translate(564.1989,214.83698)">
<circle cx="0" cy="0" fill="#1f77b4" r="5"/>
</g>
<g class="scatter-point" transform="translate(665.8563,33.291992)">
<circle cx="0" cy="0" fill="#1f77b4" r="5"/>
</g>
<g class="scatter-point" transform="translate(767.5138,5.883545)">
<circle cx="0" cy="0" fill="#1f77b4" r="5"/>
</g>
<g class="scatter-point" transform="translate(869.17126,244.055)">
<circle cx="0" cy="0" fill="#1f77b4" r="5"/>
</g>
<g class="scatter-point" transform="translate(970.82874,262.717)">
<circle cx="0" cy="0" fill="#1f77b4" r="5"/>
</g>
<g class="scatter-point" transform="translate(1072.4862,424.61652)">
<circle cx="0" cy="0" fill="#1f77b4" r="5"/>
</g>
<g class="scatter-point" transform="translate(1174.1437,463.953)">
<circle cx="0" cy="0" fill="#1f77b4" r="5"/>
</g>
<g class="scatter-point" transform="translate(1275.801,241.318)">
<circle cx="0" cy="0" fill="#1f77b4" r="5"/>
</g>
<g class="scatter-point" transform="translate(1377.4585,371.7105)">
<circle cx="0" cy="0" fill="#1f77b4" r="5"/>
</g>
<g class="scatter-point" transform="translate(1479.116,471.2295)">
<circle cx="0" cy="0" fill="#1f77b4" r="5"/>
</g>
<g class="scatter-point" transform="translate(1580.7734,566.6115)">
<circle cx="0" cy="0" fill="#1f77b4" r="5"/>
</g>
<g class="scatter-point" transform="translate(1682.4309,474.1275)">
<circle cx="0" cy="0" fill="#1f77b4" r="5"/>
</g>
<g class="scatter-point" transform="translate(1784.0884,558.964)">
<circle cx="0" cy="0" fill="#1f77b4" r="5"/>
</g>
</g>
</g>
</g>
</g>
</svg>