<svg height="800" viewBox="0 0 1920 800" width="1920" xmlns="http://www.w3.org/2000/svg">
<g class="g-chart">
<g class="g-title" transform="translate(960,25)">
<text dy=".35em" fill="#777" font-family="sans-serif" font-size="24px" text-anchor="middle" x="0" y="0">
TOP Growth
</text>
</g>
<g class="x-axis" transform="translate(80,750)">
<line shape-rendering="crispEdges" stroke="#bbbbbb" stroke-width="1" x1="0" x2="1840" y1="0" y2="0"/>
<g class="tick" transform="translate(55.911625,0)">
<line shape-rendering="crispEdges" stroke="#bbbbbb" stroke-width="1px" x1="0" x2="0" y1="0" y2="6"/>
<text dy=".35em" fill="#777" font-family="sans-serif" font-size="12px" text-anchor="middle" transform="rotate(0,0,16)" x="0" y="16">
January 2023
</text>
</g>
<g class="tick" transform="translate(157.56908,0)">
<line shape-rendering="crispEdges" stroke="#bbbbbb" stroke-width="1px" x1="0" x2="0" y1="0" y2="6"/>
<text dy=".35em" fill="#777" font-family="sans-serif" font-size="12px" text-anchor="middle" transform="rotate(0,0,16)" x="0" y="16">
February 2023
</text>
</g>
<g class="tick" transform="translate(259.22653,0)">
<line shape-rendering="crispEdges" stroke="#bbbbbb" stroke-width="1px" x1="0" x2="0" y1="0" y2="6"/>
<text dy=".35em" fill="#777" font-family="sans-serif" font-size="12px" text-anchor="middle" transform="rotate(0,0,16)" x="0" y="16">
March 2023
</text>
</g>
<g class="tick" transform="translate(360.88397,0)">
<line shape-rendering="crispEdges" stroke="#bbbbbb" stroke-width="1px" x1="0" x2="0" y1="0" y2="6"/>
<text dy=".35em" fill="#777" font-family="sans-serif" font-size="12px" text-anchor="middle" transform="rotate(0,0,16)" x="0" y="16">
April 2023
</text>
</g>
<g class="tick" transform="translate(462.54144,0)">
<line shape-rendering="crispEdges" stroke="#bbbbbb" stroke-width="1px" x1="0" x2="0" y1="0" y2="6"/>
<text dy=".35em" fill="#777" font-family="sans-serif" font-size="12px" text-anchor="middle" transform="rotate(0,0,16)" x="0" y="16">
May 2023
</text>
</g>
<g class="tick" transform="translate(564.1989,0)">
<line shape-rendering="crispEdges" stroke="#bbbbbb" stroke-width="1px" x1="0" x2="0" y1="0" y2="6"/>
<text dy=".35em" fill="#777" font-family="sans-serif" font-size="12px" text-anchor="middle" transform="rotate(0,0,16)" x="0" y="16">
June 2023
</text>
</g>
<g class="tick" transform="translate(665.8563,0)">
<line shape-rendering="crispEdges" stroke="#bbbbbb" stroke-width="1px" x1="0" x2="0" y1="0" y2="6"/>
<text dy=".35em" fill="#777" font-family="sans-serif" font-size="12px" text-anchor="middle" transform="rotate(0,0,16)" x="0" y="16">
July 2023
</text>
</g>
<g class="tick" transform="translate(767.5138,0)">
<line shape-rendering="crispEdges" stroke="#bbbbbb" stroke-width="1px" x1="0" x2="0" y1="0" y2="6"/>
<text dy=".35em" fill="#777" font-family="sans-serif" font-size="12px" text-anchor="middle" transform="rotate(0,0,16)" x="0" y="16">
August 2023
</text>
</g>
<g class="tick" transform="translate(869.17126,0)">
<line shape-rendering="crispEdges" stroke="#bbbbbb" stroke-width="1px" x1="0" x2="0" y1="0" y2="6"/>
<text dy=".35em" fill="#777" font-family="sans-serif" font-size="12px" text-anchor="middle" transform="rotate(0,0,16)" x="0" y="16">
September 2023
</text>
</g>
<g class="tick" transform="translate(970.82874,0)">
<line shape-rendering="crispEdges" stroke="#bbbbbb" stroke-width="1px" x1="0" x2="0" y1="0" y2="6"/>
<text dy=".35em" fill="#777" font-family="sans-serif" font-size="12px" text-anchor="middle" transform="rotate(0,0,16)" x="0" y="16">
October 2023
</text>
</g>
<g class="tick" transform="translate(1072.4862,0)">
<line shape-rendering="crispEdges" stroke="#bbbbbb" stroke-width="1px" x1="0" x2="0" y1="0" y2="6"/>
<text dy=".35em" fill="#777" font-family="sans-serif" font-size="12px" text-anchor="middle" transform="rotate(0,0,16)" x="0" y="16">
November 2023
</text>
</g>
<g class="tick" transform="translate(1174.1437,0)">
<line shape-rendering="crispEdges" stroke="#bbbbbb" stroke-width="1px" x1="0" x2="0" y1="0" y2="6"/>
<text dy=".35em" fill="#777" font-family="sans-serif" font-size="12px" text-anchor="middle" transform="rotate(0,0,16)" x="0" y="16">
December 2023
</text>
</g>
<g class="tick" transform="translate(1275.801,0)">
<line shape-rendering="crispEdges" stroke="#bbbbbb" stroke-width="1px" x1="0" x2="0" y1="0" y2="6"/>
<text dy=".35em" fill="#777" font-family="sans-serif" font-size="12px" text-anchor="middle" transform="rotate(0,0,16)" x="0" y="16">
January 2024
</text>
</g>
<g class="tick" transform="translate(1377.4585,0)">
<line shape-rendering="crispEdges" stroke="#bbbbbb" stroke-width="1px" x1="0" x2="0" y1="0" y2="6"/>
<text dy=".35em" fill="#777" font-family="sans-serif" font-size="12px" text-anchor="middle" transform="rotate(0,0,16)" x="0" y="16">
February 2024
</text>
</g>
<g class="tick" transform="translate(1479.116,0)">
<line shape-rendering="crispEdges" stroke="#bbbbbb" stroke-width="1px" x1="0" x2="0" y1="0" y2="6"/>
<text dy=".35em" fill="#777" font-family="sans-serif" font-size="12px" text-anchor="middle" transform="rotate(0,0,16)" x="0" y="16">
March 2024
</text>
</g>
<g class="tick" transform="translate(1580.7734,0)">
<line shape-rendering="crispEdges" stroke="#bbbbbb" stroke-width="1px" x1="0" x2="0" y1="0" y2="6"/>
<text dy=".35em" fill="#777" font-family="sans-serif" font-size="12px" text-anchor="middle" transform="rotate(0,0,16)" x="0" y="16">
April 2024
</text>
</g>
<g class="tick" transform="translate(1682.4309,0)">
<line shape-rendering="crispEdges" stroke="#bbbbbb" stroke-width="1px" x1="0" x2="0" y1="0" y2="6"/>
<text dy=".35em" fill="#777" font-family="sans-serif" font-size="12px" text-anchor="middle" transform="rotate(0,0,16)" x="0" y="16">
May 2024
</text>
</g>
<g class="tick" transform="translate(1784.0884,0)">
<line shape-rendering="crispEdges" stroke="#bbbbbb" stroke-width="1px" x1="0" x2="0" y1="0" y2="6"/>
<text dy=".35em" fill="#777" font-family="sans-serif" font-size="12px" text-anchor="middle" transform="rotate(0,0,16)" x="0" y="16">
June 2024
</text>
</g>
<text fill="#777" font-family="sans-serif" font-size="14px" text-anchor="middle" transform="rotate(0)" x="920" y="42">
January 2023 - June 2024
</text>
</g>
<g class="y-axis" transform="translate(80,50)">
<line shape-rendering="crispEdges" stroke="#bbbbbb" stroke-width="1" x1="0" x2="0" y1="0" y2="700"/>
<g class="tick" transform="translate(0,700)">
<line shape-rendering="crispEdges" stroke="#bbbbbb" stroke-width="1px" x1="0" x2="-6" y1="0" y2="0"/>
<text dy=".35em" fill="#777" font-family="sans-serif" font-size="12px" text-anchor="end" transform="rotate(0,-12,0)" x="-12" y="0">
0
</text>
</g>
<g class="tick" transform="translate(0,612.5)">
<line shape-rendering="crispEdges" stroke="#bbbbbb" stroke-width="1px" x1="0" x2="-6" y1="0" y2="0"/>
<text dy=".35em" fill="#777" font-family="sans-serif" font-size="12px" text-anchor="end" transform="rotate(0,-12,0)" x="-12" y="0">
50000
</text>
</g>
<g class="tick" transform="translate(0,525)">
<line shape-rendering="crispEdges" stroke="#bbbbbb" stroke-width="1px" x1="0" x2="-6" y1="0" y2="0"/>
<text dy=".35em" fill="#777" font-family="sans-serif" font-size="12px" text-anchor="end" transform="rotate(0,-12,0)" x="-12" y="0">
100000
</text>
</g>
<g class="tick" transform="translate(0,437.5)">
<line shape-rendering="crispEdges" stroke="#bbbbbb" stroke-width="1px" x1="0" x2="-6" y1="0" y2="0"/>
<text dy=".35em" fill="#777" font-family="sans-serif" font-size="12px" text-anchor="end" transform="rotate(0,-12,0)" x="-12" y="0">
150000
</text>
</g>
<g class="tick" transform="translate(0,350)">
<line shape-rendering="crispEdges" stroke="#bbbbbb" stroke-width="1px" x1="0" x2="-6" y1="0" y2="0"/>
<text dy=".35em" fill="#777" font-family="sans-serif" font-size="12px" text-anchor="end" transform="rotate(0,-12,0)" x="-12" y="0">
200000
</text>
</g>
<g class="tick" transform="translate(0,262.5)">
<line shape-rendering="crispEdges" stroke="#bbbbbb" stroke-width="1px" x1="0" x2="-6" y1="0" y2="0"/>
<text dy=".35em" fill="#777" font-family="sans-serif" font-size="12px" text-anchor="end" transform="rotate(0,-12,0)" x="-12" y="0">
250000
</text>
</g>
<g class="tick" transform="translate(0,175)">
<line shape-rendering="crispEdges" stroke="#bbbbbb" stroke-width="1px" x1="0" x2="-6" y1="0" y2="0"/>
<text dy=".35em" fill="#777" font-family="sans-serif" font-size="12px" text-anchor="end" transform="rotate(0,-12,0)" x="-12" y="0">
300000
</text>
</g>
<g class="tick" transform="translate(0,87.5)">
<line shape-rendering="crispEdges" stroke="#bbbbbb" stroke-width="1px" x1="0" x2="-6" y1="0" y2="0"/>
<text dy=".35em" fill="#777" font-family="sans-serif" font-size="12px" text-anchor="end" transform="rotate(0,-12,0)" x="-12" y="0">
350000
</text>
</g>
<g class="tick" transform="translate(0,0)">
<line shape-rendering="crispEdges" stroke="#bbbbbb" stroke-width="1px" x1="0" x2="-6" y1="0" y2="0"/>
<text dy=".35em" fill="#777" font-family="sans-serif" font-size="12px" text-anchor="end" transform="rotate(0,-12,0)" x="-12" y="0">
400000
</text>
</g>
</g>
<g class="g-view" transform="translate(80,50)">
<g>
<g class="line">
<path d="M55.911625,648.326 L157.56908,653.1035 L259.22653,656.83276 L360.88397,662.26825 L462.54144,650.47327 L564.1989,649.48627 L665.8563,644.22577 L767.5138,644.973 L869.17126,653.548 L970.82874,654.07477 L1072.4862,662.0582 L1174.1437,660.8665 L1275.801,654.60675 L1377.4585,660.36597 L1479.116,664.23 L1580.7734,666.07623 L1682.4309,662.011 L1784.0884,665.29926" fill="none" stroke="#1f77b4" stroke-width="2"/>
<g class="scatter-point" transform="translate(55.911625,648.326)">
<circle cx="0" cy="0" fill="#1f77b4" r="5"/>
</g>
<g class="scatter-point" transform="translate(157.56908,653.1035)">
<circle cx="0" cy="0" fill="#1f77b4" r="5"/>
</g>
<g class="scatter-point" transform="translate(259.22653,656.83276)">
<circle cx="0" cy="0" fill="#1f77b4" r="5"/>
</g>
<g class="scatter-point" transform="translate(360.88397,662.26825)">
<circle cx="0" cy="0" fill="#1f77b4" r="5"/>
</g>
<g class="scatter-point" transform="translate(462.54144,650.47327)">
<circle cx="0" cy="0" fill="#1f77b4" r="5"/>
</g>
<g class="scatter-point" transform="translate(564.1989,649.48627)">
<circle cx="0" cy="0" fill="#1f77b4" r="5"/>
</g>
<g class="scatter-point" transform="translate(665.8563,644.22577)">
<circle cx="0" cy="0" fill="#1f77b4" r="5"/>
</g>
<g class="scatter-point" transform="translate(767.5138,644.973)">
<circle cx="0" cy="0" fill="#1f77b4" r="5"/>
</g>
<g class="scatter-point" transform="translate(869.17126,653.548)">
<circle cx="0" cy="0" fill="#1f77b4" r="5"/>
</g>
<g class="scatter-point" transform="translate(970.82874,654.07477)">
<circle cx="0" cy="0" fill="#1f77b4" r="5"/>
</g>
<g class="scatter-point" transform="translate(1072.4862,662.0582)">
<circle cx="0" cy="0" fill="#1f77b4" r="5"/>
</g>
<g class="scatter-point" transform="translate(1174.1437,660.8665)">
<circle cx="0" cy="0" fill="#1f77b4" r="5"/>
</g>
<g class="scatter-point" transform="translate(1275.801,654.60675)">
<circle cx="0" cy="0" fill="#1f77b4" r="5"/>
</g>
<g class="scatter-point" transform="translate(1377.4585,660.36597)">
<circle cx="0" cy="0" fill="#1f77b4" r="5"/>
</g>
<g class="scatter-point" transform="translate(1479.116,664.23)">
<circle cx="0" cy="0" fill="#1f77b4" r="5"/>
</g>
<g class="scatter-point" transform="translate(1580.7734,666.07623)">
<circle cx="0" cy="0" fill="#1f77b4" r="5"/>
</g>
<g class="scatter-point" transform="translate(1682.4309,662.011)">
<circle cx="0" cy="0" fill="#1f77b4" r="5"/>
</g>
<g class="scatter-point" transform="translate(1784.0884,665.29926)">
<circle cx="0" cy="0" fill="#1f77b4" r="5"/>
</g>
</g>
</g>
<g>
<g class="line">
<path d="M55.911625,81.95776 L157.56908,162.82526 L259.22653,182.896 L360.88397,258.90726 L462.54144,149.33972 L564.1989,107.41852 L665.8563,16.645996 L767.5138,2.9417114 L869.17126,122.027466 L970.82874,131.35846 L1072.4862,212.30826 L1174.1437,231.97647 L1275.801,120.659 L1377.4585,185.85529 L1479.116,235.61475 L1580.7734,283.30576 L1682.4309,237.06375 L1784.0884,279.482" fill="none" stroke="#aaaa00" stroke-width="2"/>
<g class="scatter-point" transform="translate(55.911625,81.95776)">
<circle cx="0" cy="0" fill="#aaaa00" r="5"/>
</g>
<g class="scatter-point" transform="translate(157.56908,162.82526)">
<circle cx="0" cy="0" fill="#aaaa00" r="5"/>
</g>
<g class="scatter-point" transform="translate(259.22653,182.896)">
<circle cx="0" cy="0" fill="#aaaa00" r="5"/>
</g>
<g class="scatter-point" transform="translate(360.88397,258.90726)">
<circle cx="0" cy="0" fill="#aaaa00" r="5"/>
</g>
<g class="scatter-point" transform="translate(462.54144,149.33972)">
<circle cx="0" cy="0" fill="#aaaa00" r="5"/>
</g>
<g class="scatter-point" transform="translate(564.1989,107.41852)">
<circle cx="0" cy="0" fill="#aaaa00" r="5"/>
</g>
<g class="scatter-point" transform="translate(665.8563,16.645996)">
<circle cx="0" cy="0" fill="#aaaa00" r="5"/>
</g>
<g class="scatter-point" transform="translate(767.5138,2.9417114)">
<circle cx="0" cy="0" fill="#aaaa00" r="5"/>
</g>
<g class="scatter-point" transform="translate(869.17126,122.027466)">
<circle cx="0" cy="0" fill="#aaaa00" r="5"/>
</g>
<g class="scatter-point" transform="translate(970.82874,131.35846)">
<circle cx="0" cy="0" fill="#aaaa00" r="5"/>
</g>
<g class="scatter-point" transform="translate(1072.4862,212.30826)">
<circle cx="0" cy="0" fill="#aaaa00" r="5"/>
</g>
<g class="scatter-point" transform="translate(1174.1437,231.97647)">
<circle cx="0" cy="0" fill="#aaaa00" r="5"/>
</g>
<g class="scatter-point" transform="translate(1275.801,120.659)">
<circle cx="0" cy="0" fill="#aaaa00" r="5"/>
</g>
<g class="scatter-point" transform="translate(1377.4585,185.85529)">
<circle cx="0" cy="0" fill="#aaaa00" r="5"/>
</g>
<g class="scatter-point" transform="translate(1479.116,235.61475)">
<circle cx="0" cy="0" fill="#aaaa00" r="5"/>
</g>
<g class="scatter-point" transform="translate(1580.7734,283.30576)">
<circle cx="0" cy="0" fill="#aaaa00" r="5"/>
</g>
<g class="scatter-point" transform="translate(1682.4309,237.06375)">
<circle cx="0" cy="0" fill="#aaaa00" r="5"/>
</g>
<g class="scatter-point" transform="translate(1784.0884,279.482)">
<circle cx="0" cy="0" fill="#aaaa00" r="5"/>
</g>
</g>
</g>
<g>
<g class="line">
<path d="M55.911625,693.27124 L157.56908,693.882 L259.22653,693.42175 L360.88397,694.5575 L462.54144,694.3107 L564.1989,693.5355 L665.8563,689.91125 L767.5138,683.179 L869.17126,686.1015 L970.82874,686.9975 L1072.4862,687.722 L1174.1437,688.835 L1275.801,684.7575 L1377.4585,683.31024 L1479.116,683.5955 L1580.7734,684.88873 L1682.4309,683.5062 L1784.0884,685.4995" fill="none" stroke="#aa0000" stroke-width="2"/>
<g class="scatter-point" transform="translate(55.911625,693.27124)">
<circle cx="0" cy="0" fill="#aa0000" r="5"/>
</g>
<g class="scatter-point" transform="translate(157.56908,693.882)">
<circle cx="0" cy="0" fill="#aa0000" r="5"/>
</g>
<g class="scatter-point" transform="translate(259.22653,693.42175)">
<circle cx="0" cy="0" fill="#aa0000" r="5"/>
</g>
<g class="scatter-point" transform="translate(360.88397,694.5575)">
<circle cx="0" cy="0" fill="#aa0000" r="5"/>
</g>
<g class="scatter-point" transform="translate(462.54144,694.3107)">
<circle cx="0" cy="0" fill="#aa0000" r="5"/>
</g>
<g class="scatter-point" transform="translate(564.1989,693.5355)">
<circle cx="0" cy="0" fill="#aa0000" r="5"/>
</g>
<g class="scatter-point" transform="translate(665.8563,689.91125)">
<circle cx="0" cy="0" fill="#aa0000" r="5"/>
</g>
<g class="scatter-point" transform="translate(767.5138,683.179)">
<circle cx="0" cy="0" fill="#aa0000" r="5"/>
</g>
<g class="scatter-point" transform="translate(869.17126,686.1015)">
<circle cx="0" cy="0" fill="#aa0000" r="5"/>
</g>
<g class="scatter-point" transform="translate(970.82874,686.9975)">
<circle cx="0" cy="0" fill="#aa0000" r="5"/>
</g>
<g class="scatter-point" transform="translate(1072.4862,687.722)">
<circle cx="0" cy="0" fill="#aa0000" r="5"/>
</g>
<g class="scatter-point" transform="translate(1174.1437,688.835)">
<circle cx="0" cy="0" fill="#aa0000" r="5"/>
</g>
<g class="scatter-point" transform="translate(1275.801,684.7575)">
<circle cx="0" cy="0" fill="#aa0000" r="5"/>
</g>
<g class="scatter-point" transform="translate(1377.4585,683.31024)">
<circle cx="0" cy="0" fill="#aa0000" r="5"/>
</g>
<g class="scatter-point" transform="translate(1479.116,683.5955)">
<circle cx="0" cy="0" fill="#aa0000" r="5"/>
</g>
<g class="scatter-point" transform="translate(1580.7734,684.88873)">
<circle cx="0" cy="0" fill="#aa0000" r="5"/>
</g>
<g class="scatter-point" transform="translate(1682.4309,683.5062)">
<circle cx="0" cy="0" fill="#aa0000" r="5"/>
</g>
<g class="scatter-point" transform="translate(1784.0884,685.4995)">
<circle cx="0" cy="0" fill="#aa0000" r="5"/>
</g>
</g>
</g>
<g>
<g class="line">
<path d="M55.911625,689.61725 L157.56908,690.82825 L259.22653,690.8615 L360.88397,691.5458 L462.54144,691.404 L564.1989,690.7302 L665.8563,689.0695 L767.5138,688.1035 L869.17126,689.843 L970.82874,690.2543 L1072.4862,691.0995 L1174.1437,691.73126 L1275.801,688.191 L1377.4585,686.08575 L1479.116,686.5477 L1580.7734,687.722 L1682.4309,686.90125 L1784.0884,687.8917" fill="none" stroke="#555555" stroke-width="2"/>
<g class="scatter-point" transform="translate(55.911625,689.61725)">
<circle cx="0" cy="0" fill="#555555" r="5"/>
</g>
<g class="scatter-point" transform="translate(157.56908,690.82825)">
<circle cx="0" cy="0" fill="#555555" r="5"/>
</g>
<g class="scatter-point" transform="translate(259.22653,690.8615)">
<circle cx="0" cy="0" fill="#555555" r="5"/>
</g>
<g class="scatter-point" transform="translate(360.88397,691.5458)">
<circle cx="0" cy="0" fill="#555555" r="5"/>
</g>
<g class="scatter-point" transform="translate(462.54144,691.404)">
<circle cx="0" cy="0" fill="#555555" r="5"/>
</g>
<g class="scatter-point" transform="translate(564.1989,690.7302)">
<circle cx="0" cy="0" fill="#555555" r="5"/>
</g>
<g class="scatter-point" transform="translate(665.8563,689.0695)">
<circle cx="0" cy="0" fill="#555555" r="5"/>
</g>
<g class="scatter-point" transform="translate(767.5138,688.1035)">
<circle cx="0" cy="0" fill="#555555" r="5"/>
</g>
<g class="scatter-point" transform="translate(869.17126,689.843)">
<circle cx="0" cy="0" fill="#555555" r="5"/>
</g>
<g class="scatter-point" transform="translate(970.82874,690.2543)">
<circle cx="0" cy="0" fill="#555555" r="5"/>
</g>
<g class="scatter-point" transform="translate(1072.4862,691.0995)">
<circle cx="0" cy="0" fill="#555555" r="5"/>
</g>
<g class="scatter-point" transform="translate(1174.1437,691.73126)">
<circle cx="0" cy="0" fill="#555555" r="5"/>
</g>
<g class="scatter-point" transform="translate(1275.801,688.191)">
<circle cx="0" cy="0" fill="#555555" r="5"/>
</g>
<g class="scatter-point" transform="translate(1377.4585,686.08575)">
<circle cx="0" cy="0" fill="#555555" r="5"/>
</g>
<g class="scatter-point" transform="translate(1479.116,686.5477)">
<circle cx="0" cy="0" fill="#555555" r="5"/>
</g>
<g class="scatter-point" transform="translate(1580.7734,687.722)">
<circle cx="0" cy="0" fill="#555555" r="5"/>
</g>
<g class="scatter-point" transform="translate(1682.4309,686.90125)">
<circle cx="0" cy="0" fill="#555555" r="5"/>
</g>
<g class="scatter-point" transform="translate(1784.0884,687.8917)">
<circle cx="0" cy="0" fill="#555555" r="5"/>
</g>
</g>
</g>
</g>
<g class="g-legend" transform="translate(1940,50)">
<g class="legend-entry" transform="translate(0,0)">
<line stroke="#1f77b4" stroke-dasharray="none" stroke-width="2px" x1="0" x2="14" y1="7" y2="7"/>
<text dy=".35em" fill="#777" font-family="sans-serif" font-size="12px" x="20" y="7">
User Sign Ups
</text>
</g>
<g class="legend-entry" transform="translate(163,0)">
<line stroke="#aaaa00" stroke-dasharray="none" stroke-width="2px" x1="0" x2="14" y1="7" y2="7"/>
<text dy=".35em" fill="#777" font-family="sans-serif" font-size="12px" x="20" y="7">
Lessons Completed
</text>
</g>
<g class="legend-entry" transform="translate(326,0)">
<line stroke="#aa0000" stroke-dasharray="none" stroke-width="2px" x1="0" x2="14" y1="7" y2="7"/>
<text dy=".35em" fill="#777" font-family="sans-serif" font-size="12px" x="20" y="7">
Project Submissions
</text>
</g>
<g class="legend-entry" transform="translate(489,0)">
<line stroke="#555555" stroke-dasharray="none" stroke-width="2px" x1="0" x2="14" y1="7" y2="7"/>
<text dy=".35em" fill="#777" font-family="sans-serif" font-size="12px" x="20" y="7">
Projects Liked
</text>
</g>
</g>
</g>
</svg>